<?xml version="1.0" encoding="utf-8"?>
<!-- Generator: Adobe Illustrator 16.0.0, SVG Export Plug-In . SVG Version: 6.00 Build 0)  -->
<!DOCTYPE svg PUBLIC "-//W3C//DTD SVG 1.1//EN" "http://www.w3.org/Graphics/SVG/1.1/DTD/svg11.dtd">
<svg version="1.1" id="Capa_1" xmlns="http://www.w3.org/2000/svg" xmlns:xlink="http://www.w3.org/1999/xlink" x="0px" y="0px"
	 width="500px" height="500px" viewBox="0 0 500 500" enable-background="new 0 0 500 500" xml:space="preserve">
<g>
	<path fill="#73EDFF" d="M222.367,466.849C102.136,451.581,17.027,341.631,32.191,221.398
		C47.456,101.162,157.412,16.054,277.645,31.222c120.232,15.262,205.342,125.219,190.179,245.456
		C452.55,396.901,342.602,482.02,222.367,466.849L222.367,466.849z"/>
	<g>
		<path fill="#000078" d="M280.148,11.421c-10.146-1.271-20.192-1.893-30.166-1.893c-118.793,0-222.233,88.573-237.59,209.388
			C-4.128,349.913,88.936,470.022,219.872,486.646c130.961,16.555,251.124-76.532,267.742-207.46v-0.01
			C504.151,148.159,411.074,28.05,280.148,11.421L280.148,11.421z M448.021,274.177
			c-13.866,109.107-114.063,186.567-223.129,172.884C115.786,433.208,38.229,333.1,52,223.927
			C65.855,114.805,165.962,37.289,275.139,51.023C384.236,64.867,461.797,164.982,448.021,274.177L448.021,274.177z"/>
		<path fill="#000078" d="M134.132,322.42l67.996-3.598c26.354-1.46,52.532,1.874,77.895,9.883l64.858,20.451
			c1.996,0.633,4.013,0.934,6.017,0.934c8.481,0,16.343-5.449,19.018-13.957c3.314-10.524-2.517-21.726-13.032-25.036
			l-64.833-20.447c-29.975-9.479-60.944-13.444-92.083-11.675l-67.955,3.598c-11.007,0.577-19.453,9.974-18.875,20.975
			C113.737,314.557,123.267,323.07,134.132,322.42L134.132,322.42z"/>
		<circle fill="#000078" cx="192.5" cy="173.5" r="29"/>
		<circle fill="#000078" cx="316.5" cy="178.5" r="29"/>
	</g>
</g>
</svg>
